<?xml version="1.0" encoding="UTF-8" standalone="no"?>
<!DOCTYPE svg PUBLIC "-//W3C//DTD SVG 1.1//EN" "http://www.w3.org/Graphics/SVG/1.1/DTD/svg11.dtd">
<svg width="100%" height="100%" viewBox="0 0 2550 3300" version="1.1" xmlns="http://www.w3.org/2000/svg" xmlns:xlink="http://www.w3.org/1999/xlink" xml:space="preserve" xmlns:serif="http://www.serif.com/" style="fill-rule:evenodd;clip-rule:evenodd;stroke-linejoin:round;stroke-miterlimit:2;">
    <g transform="matrix(1,0,0,1,246.24,237.983)">
        <g transform="matrix(50,0,0,50,538.715,111.139)">
        </g>
        <text x="77.76px" y="111.139px" style="font-family:'Helvetica-Bold', 'Helvetica';font-weight:700;font-size:50px;">P<tspan x="108.464px 136.361px 166.137px 194.034px 221.931px 258.177px 291.64px 330.645px 407.76px 441.223px 477.469px 508.173px " y="111.139px 111.139px 111.139px 111.139px 111.139px 111.139px 111.139px 111.139px 111.139px 111.139px 111.139px 111.139px ">LATFORM COST</tspan></text>
    </g>
    <g transform="matrix(1,0,0,1,665.76,237.983)">
        <text x="210.24px" y="111.139px" style="font-family:'Helvetica-Bold', 'Helvetica';font-weight:700;font-size:50px;">L<tspan x="238.949px 270.466px 304.742px 339.018px 373.293px 385.352px 419.628px " y="111.139px 111.139px 111.139px 111.139px 111.139px 111.139px 111.139px ">EARNING</tspan></text>
        <g transform="matrix(50,0,0,50,511.337,172.139)">
        </g>
        <text x="210.24px" y="172.139px" style="font-family:'Helvetica-Bold', 'Helvetica';font-weight:700;font-size:50px;">I<tspan x="221.782px 255.541px 286.542px 317.542px 348.542px 376.735px 416.036px 447.036px 480.795px " y="172.139px 172.139px 172.139px 172.139px 172.139px 172.139px 172.139px 172.139px 172.139px ">NVESTMENT</tspan></text>
    </g>
    <g transform="matrix(1,0,0,1,924.92,237.983)">
        <text x="292.08px" y="111.139px" style="font-family:'Helvetica-Bold', 'Helvetica';font-weight:700;font-size:50px;">E<tspan x="325.534px 353.447px 381.359px 409.271px 426.026px 456.673px 473.428px " y="111.139px 111.139px 111.139px 111.139px 111.139px 111.139px 111.139px ">ase-of-</tspan></text>
        <g transform="matrix(50,0,0,50,379.88,172.139)">
        </g>
        <text x="292.08px" y="172.139px" style="font-family:'Helvetica-Bold', 'Helvetica';font-weight:700;font-size:50px;">u<tspan x="323.443px 352.072px " y="172.139px 172.139px ">se</tspan></text>
    </g>
    <g transform="matrix(1,0,0,1,1154.44,237.983)">
        <text x="364.56px" y="111.139px" style="font-family:'Helvetica-Bold', 'Helvetica';font-weight:700;font-size:50px;">G<tspan x="403.938px 423.882px 452.176px 483.204px 514.232px 528.61px 556.903px 585.197px " y="111.139px 111.139px 111.139px 111.139px 111.139px 111.139px 111.139px 111.139px ">raphical</tspan></text>
        <g transform="matrix(50,0,0,50,584.795,172.139)">
        </g>
        <text x="364.56px" y="172.139px" style="font-family:'Helvetica-Bold', 'Helvetica';font-weight:700;font-size:50px;">I<tspan x="379.928px 411.947px 430.073px 459.358px 480.292px 498.419px 527.703px 556.987px " y="172.139px 172.139px 172.139px 172.139px 172.139px 172.139px 172.139px 172.139px ">nterface</tspan></text>
    </g>
    <g transform="matrix(1,0,0,1,1499.48,237.983)">
        <g transform="matrix(50,0,0,50,718.944,111.139)">
        </g>
        <text x="473.52px" y="111.139px" style="font-family:'Helvetica-Bold', 'Helvetica';font-weight:700;font-size:50px;">F<tspan x="505.543px 520.915px 550.204px 579.493px 594.865px 626.888px 642.26px 657.633px 673.005px 691.137px " y="111.139px 111.139px 111.139px 111.139px 111.139px 111.139px 111.139px 111.139px 111.139px 111.139px ">lexibility</tspan></text>
    </g>
    <g transform="matrix(1,0,0,1,246.24,332.223)">
        <text x="77.76px" y="140.777px" style="font-family:'Helvetica';font-size:50px;">C<tspan x="111.03px 136px " y="140.777px 140.777px ">LC</tspan></text>
        <g transform="matrix(50,0,0,50,325.788,201.777)">
        </g>
        <text x="77.76px" y="201.777px" style="font-family:'Helvetica';font-size:50px;">W<tspan x="123.577px 150.888px 167.041px 191.544px 218.855px 246.166px 273.477px 297.98px " y="201.777px 201.777px 201.777px 201.777px 201.777px 201.777px 201.777px 201.777px ">orkbench</tspan></text>
    </g>
    <g transform="matrix(1,0,0,1,497.04,332.223)">
        <g transform="matrix(50,0,0,50,511.637,140.777)">
        </g>
        <text x="156.96px" y="140.777px" style="font-family:'Helvetica';font-size:50px;">H<tspan x="192.192px 202.424px 229.356px 256.287px 283.219px 307.343px 320.358px 378.96px 405.891px 432.823px 468.055px 494.987px " y="140.777px 140.777px 140.777px 140.777px 140.777px 140.777px 140.777px 140.777px 140.777px 140.777px 140.777px 140.777px ">ighest Lower</tspan></text>
    </g>
    <g transform="matrix(1,0,0,1,924.92,332.223)">
        <text x="292.08px" y="140.777px" style="font-family:'Helvetica';font-size:50px;">H<tspan x="327.148px 337.215px 363.982px 390.749px 403.6px 416.451px 448.759px 475.526px 485.594px 512.361px " y="140.777px 140.777px 140.777px 140.777px 140.777px 140.777px 140.777px 140.777px 140.777px 140.777px ">igh: Point</tspan></text>
        <g transform="matrix(50,0,0,50,483.644,201.777)">
        </g>
        <text x="292.08px" y="201.777px" style="font-family:'Helvetica';font-size:50px;">a<tspan x="320.397px 348.714px 377.031px 384.39px 409.899px 421.517px 433.135px 458.644px " y="201.777px 201.777px 201.777px 201.777px 201.777px 201.777px 201.777px 201.777px ">nd click</tspan></text>
    </g>
    <g transform="matrix(1,0,0,1,1154.44,332.223)">
        <text x="364.56px" y="140.777px" style="font-family:'Helvetica';font-size:50px;">E<tspan x="397.046px 421.182px 445.318px 455.562px 482.506px 506.642px 516.886px 541.022px 567.966px 578.21px " y="140.777px 140.777px 140.777px 140.777px 140.777px 140.777px 140.777px 140.777px 140.777px 140.777px ">xclusively</tspan></text>
        <text x="364.56px" y="201.777px" style="font-family:'Helvetica';font-size:50px;">g<tspan x="391.793px 407.869px 435.102px 462.336px 489.569px 500.103px 524.528px 551.761px 562.295px 575.613px 591.689px 627.222px 654.456px 678.881px 703.307px 716.624px 743.857px " y="201.777px 201.777px 201.777px 201.777px 201.777px 201.777px 201.777px 201.777px 201.777px 201.777px 201.777px 201.777px 201.777px 201.777px 201.777px 201.777px 201.777px ">raphical (Desktop</tspan></text>
        <g transform="matrix(50,0,0,50,463.875,262.777)">
        </g>
        <text x="364.56px" y="262.777px" style="font-family:'Helvetica';font-size:50px;">a<tspan x="392.115px 419.67px 447.225px " y="262.777px 262.777px 262.777px ">pp)</tspan></text>
    </g>
    <g transform="matrix(1,0,0,1,1499.48,332.223)">
        <g transform="matrix(50,0,0,50,561.828,140.777)">
        </g>
        <text x="473.52px" y="140.777px" style="font-family:'Helvetica';font-size:50px;">L<tspan x="499.62px 525.72px " y="140.777px 140.777px ">ow</tspan></text>
    </g>
    <g transform="matrix(1,0,0,1,246.24,472.823)">
        <g transform="matrix(50,0,0,50,285.535,185.177)">
        </g>
        <text x="77.76px" y="185.177px" style="font-family:'Helvetica';font-size:50px;">G<tspan x="115.757px 142.67px 169.583px 196.496px 206.709px 233.622px 260.535px " y="185.177px 185.177px 185.177px 185.177px 185.177px 185.177px 185.177px ">eneious</tspan></text>
    </g>
    <g transform="matrix(1,0,0,1,497.04,472.823)">
        <g transform="matrix(50,0,0,50,256.278,185.177)">
        </g>
        <text x="156.96px" y="185.177px" style="font-family:'Helvetica';font-size:50px;">H<tspan x="191.897px 201.834px 228.47px " y="185.177px 185.177px 185.177px ">igh</tspan></text>
    </g>
    <g transform="matrix(1,0,0,1,665.76,472.823)">
        <g transform="matrix(50,0,0,50,340.99,185.177)">
        </g>
        <text x="210.24px" y="185.177px" style="font-family:'Helvetica';font-size:50px;">L<tspan x="236.69px 263.14px 297.89px 324.34px " y="185.177px 185.177px 185.177px 185.177px ">ower</tspan></text>
    </g>
    <g transform="matrix(1,0,0,1,924.92,472.823)">
        <text x="292.08px" y="185.177px" style="font-family:'Helvetica';font-size:50px;">H<tspan x="327.148px 337.215px 363.982px 390.749px 403.6px 416.451px 448.759px 475.526px 485.594px 512.361px " y="185.177px 185.177px 185.177px 185.177px 185.177px 185.177px 185.177px 185.177px 185.177px 185.177px ">igh: Point</tspan></text>
        <g transform="matrix(50,0,0,50,483.644,246.177)">
        </g>
        <text x="292.08px" y="246.177px" style="font-family:'Helvetica';font-size:50px;">a<tspan x="320.397px 348.714px 377.031px 384.39px 409.899px 421.517px 433.135px 458.644px " y="246.177px 246.177px 246.177px 246.177px 246.177px 246.177px 246.177px 246.177px ">nd click</tspan></text>
    </g>
    <g transform="matrix(1,0,0,1,1154.44,472.823)">
        <text x="364.56px" y="185.177px" style="font-family:'Helvetica';font-size:50px;">E<tspan x="397.046px 421.182px 445.318px 455.562px 482.506px 506.642px 516.886px 541.022px 567.966px 578.21px " y="185.177px 185.177px 185.177px 185.177px 185.177px 185.177px 185.177px 185.177px 185.177px 185.177px ">xclusively</tspan></text>
        <text x="364.56px" y="246.177px" style="font-family:'Helvetica';font-size:50px;">g<tspan x="391.793px 407.869px 435.102px 462.336px 489.569px 500.103px 524.528px 551.761px 562.295px 575.613px 591.689px 627.222px 654.456px 678.881px 703.307px 716.624px 743.857px " y="246.177px 246.177px 246.177px 246.177px 246.177px 246.177px 246.177px 246.177px 246.177px 246.177px 246.177px 246.177px 246.177px 246.177px 246.177px 246.177px 246.177px ">raphical (Desktop</tspan></text>
        <g transform="matrix(50,0,0,50,463.875,307.177)">
        </g>
        <text x="364.56px" y="307.177px" style="font-family:'Helvetica';font-size:50px;">a<tspan x="392.115px 419.67px 447.225px " y="307.177px 307.177px 307.177px ">pp)</tspan></text>
    </g>
    <g transform="matrix(1,0,0,1,1499.48,472.823)">
        <g transform="matrix(50,0,0,50,561.828,185.177)">
        </g>
        <text x="473.52px" y="185.177px" style="font-family:'Helvetica';font-size:50px;">L<tspan x="499.62px 525.72px " y="185.177px 185.177px ">ow</tspan></text>
    </g>
    <g transform="matrix(1,0,0,1,246.24,614.183)">
        <g transform="matrix(50,0,0,50,226.71,229.817)">
        </g>
        <text x="77.76px" y="229.817px" style="font-family:'Helvetica';font-size:50px;">G<tspan x="115.319px 141.793px 151.569px 178.043px 201.71px " y="229.817px 229.817px 229.817px 229.817px 229.817px ">alaxy</tspan></text>
    </g>
    <g transform="matrix(1,0,0,1,497.04,614.183)">
        <g transform="matrix(50,0,0,50,275.233,229.817)">
        </g>
        <text x="156.96px" y="229.817px" style="font-family:'Helvetica';font-size:50px;">N<tspan x="192.649px 220.037px 247.425px " y="229.817px 229.817px 229.817px ">one</tspan></text>
    </g>
    <g transform="matrix(1,0,0,1,665.76,614.183)">
        <g transform="matrix(50,0,0,50,385.63,229.817)">
        </g>
        <text x="210.24px" y="229.817px" style="font-family:'Helvetica';font-size:50px;">M<tspan x="251.402px 278.721px 306.041px 316.661px 343.98px " y="229.817px 229.817px 229.817px 229.817px 229.817px ">edium</tspan></text>
    </g>
    <g transform="matrix(1,0,0,1,924.92,614.183)">
        <text x="292.08px" y="229.817px" style="font-family:'Helvetica';font-size:50px;">M<tspan x="333.49px 361.057px 388.625px 399.493px 427.06px 468.47px " y="229.817px 229.817px 229.817px 229.817px 229.817px 229.817px ">edium:</tspan></text>
        <text x="292.08px" y="290.817px" style="font-family:'Helvetica';font-size:50px;">w<tspan x="327.928px 355.476px 383.023px " y="290.817px 290.817px 290.817px ">eb-</tspan></text>
        <g transform="matrix(50,0,0,50,466.005,351.817)">
        </g>
        <text x="292.08px" y="351.817px" style="font-family:'Helvetica';font-size:50px;">b<tspan x="319.237px 335.236px 362.392px 397.85px 422.198px 449.355px " y="351.817px 351.817px 351.817px 351.817px 351.817px 351.817px ">rowser</tspan></text>
    </g>
    <g transform="matrix(1,0,0,1,1154.44,614.183)">
        <text x="364.56px" y="229.817px" style="font-family:'Helvetica';font-size:50px;">W<tspan x="410.062px 437.059px 464.055px 479.894px 506.89px 533.887px 558.076px 585.072px " y="229.817px 229.817px 229.817px 229.817px 229.817px 229.817px 229.817px 229.817px ">eb-based</tspan></text>
        <g transform="matrix(50,0,0,50,557.888,290.817)">
        </g>
        <text x="364.56px" y="290.817px" style="font-family:'Helvetica';font-size:50px;">i<tspan x="375.863px 403.865px 417.951px 445.953px 462.798px 476.884px 504.886px 530.08px " y="290.817px 290.817px 290.817px 290.817px 290.817px 290.817px 290.817px 290.817px ">nterface</tspan></text>
    </g>
    <g transform="matrix(1,0,0,1,1499.48,614.183)">
        <g transform="matrix(50,0,0,50,600.548,229.817)">
        </g>
        <text x="473.52px" y="229.817px" style="font-family:'Helvetica';font-size:50px;">S<tspan x="505.674px 532.285px 572.74px " y="229.817px 229.817px 229.817px ">ome</tspan></text>
    </g>
    <g transform="matrix(1,0,0,1,246.24,754.783)">
        <text x="77.76px" y="274.217px" style="font-family:'Helvetica';font-size:50px;">C<tspan x="113.67px 141.279px 182.73px 224.182px 251.791px 279.4px " y="274.217px 274.217px 274.217px 274.217px 274.217px 274.217px ">ommand</tspan></text>
        <text x="77.76px" y="335.217px" style="font-family:'Helvetica';font-size:50px;">l<tspan x="88.568px 99.376px 126.882px 154.389px 167.98px 184.33px 211.837px 239.344px 266.851px " y="335.217px 335.217px 335.217px 335.217px 335.217px 335.217px 335.217px 335.217px 335.217px ">ine (open</tspan></text>
        <g transform="matrix(50,0,0,50,242.31,396.217)">
        </g>
        <text x="77.76px" y="396.217px" style="font-family:'Helvetica';font-size:50px;">s<tspan x="102.398px 129.843px 157.289px 173.577px 198.215px 225.66px " y="396.217px 396.217px 396.217px 396.217px 396.217px 396.217px ">ource)</tspan></text>
    </g>
    <g transform="matrix(1,0,0,1,497.04,754.783)">
        <g transform="matrix(50,0,0,50,278.523,274.217)">
        </g>
        <text x="156.96px" y="274.217px" style="font-family:'Helvetica';font-size:50px;">N<tspan x="193.745px 222.23px 250.715px " y="274.217px 274.217px 274.217px ">one</tspan></text>
    </g>
    <g transform="matrix(1,0,0,1,665.76,754.783)">
        <g transform="matrix(50,0,0,50,373.307,274.217)">
        </g>
        <text x="210.24px" y="274.217px" style="font-family:'Helvetica';font-size:50px;">H<tspan x="245.271px 255.302px 282.032px 308.762px 335.492px 359.415px " y="274.217px 274.217px 274.217px 274.217px 274.217px 274.217px ">ighest</tspan></text>
    </g>
    <g transform="matrix(1,0,0,1,924.92,754.783)">
        <text x="292.08px" y="274.217px" style="font-family:'Helvetica';font-size:50px;">L<tspan x="318.482px 344.883px 379.585px 392.071px 403.678px 427.272px 453.673px 477.267px 489.753px " y="274.217px 274.217px 274.217px 274.217px 274.217px 274.217px 274.217px 274.217px 274.217px ">ow: Text-</tspan></text>
        <g transform="matrix(50,0,0,50,424.628,335.217)">
        </g>
        <text x="292.08px" y="335.217px" style="font-family:'Helvetica';font-size:50px;">b<tspan x="318.967px 345.854px 369.933px 396.82px " y="335.217px 335.217px 335.217px 335.217px ">ased</tspan></text>
    </g>
    <g transform="matrix(1,0,0,1,1154.44,754.783)">
        <g transform="matrix(50,0,0,50,638.229,274.217)">
        </g>
        <text x="364.56px" y="274.217px" style="font-family:'Helvetica';font-size:50px;">A<tspan x="397.807px 408.813px 450.362px 478.067px 502.965px 516.754px 527.305px 555.01px 582.716px 610.421px " y="274.217px 274.217px 274.217px 274.217px 274.217px 274.217px 274.217px 274.217px 274.217px 274.217px ">lmost none</tspan></text>
    </g>
    <g transform="matrix(1,0,0,1,1499.48,754.783)">
        <g transform="matrix(50,0,0,50,636.587,274.217)">
        </g>
        <text x="473.52px" y="274.217px" style="font-family:'Helvetica';font-size:50px;">H<tspan x="508.551px 518.582px 545.312px 572.042px 598.772px 622.695px " y="274.217px 274.217px 274.217px 274.217px 274.217px 274.217px ">ighest</tspan></text>
    </g>
    <g transform="matrix(4.16667,0,0,4.16667,0,-2698)">
        <rect x="72" y="719.52" width="0.48" height="0.48" style="stroke:black;stroke-width:1px;"/>
    </g>
    <g transform="matrix(4.16667,0,0,4.16667,0,-2698)">
        <rect x="72" y="719.52" width="0.48" height="0.48" style="stroke:black;stroke-width:1px;"/>
    </g>
    <g transform="matrix(4.16667,0,0,4.16667,0,-2698)">
        <rect x="72.48" y="719.52" width="78.96" height="0.48" style="stroke:black;stroke-width:1px;"/>
    </g>
    <g transform="matrix(4.16667,0,0,4.16667,0,-2698)">
        <rect x="151.44" y="719.52" width="0.48" height="0.48" style="stroke:black;stroke-width:1px;"/>
    </g>
    <g transform="matrix(4.16667,0,0,4.16667,0,-2698)">
        <rect x="151.92" y="719.52" width="52.56" height="0.48" style="stroke:black;stroke-width:1px;"/>
    </g>
    <g transform="matrix(4.16667,0,0,4.16667,0,-2698)">
        <rect x="204.48" y="719.52" width="0.48" height="0.48" style="stroke:black;stroke-width:1px;"/>
    </g>
    <g transform="matrix(4.16667,0,0,4.16667,0,-2698)">
        <rect x="204.96" y="719.52" width="81.36" height="0.48" style="stroke:black;stroke-width:1px;"/>
    </g>
    <g transform="matrix(4.16667,0,0,4.16667,0,-2698)">
        <rect x="286.32" y="719.52" width="0.48" height="0.48" style="stroke:black;stroke-width:1px;"/>
    </g>
    <g transform="matrix(4.16667,0,0,4.16667,0,-2698)">
        <rect x="286.8" y="719.52" width="72.24" height="0.48" style="stroke:black;stroke-width:1px;"/>
    </g>
    <g transform="matrix(4.16667,0,0,4.16667,0,-2698)">
        <rect x="359.04" y="719.52" width="0.48" height="0.48" style="stroke:black;stroke-width:1px;"/>
    </g>
    <g transform="matrix(4.16667,0,0,4.16667,0,-2698)">
        <rect x="359.52" y="719.52" width="108.24" height="0.48" style="stroke:black;stroke-width:1px;"/>
    </g>
    <g transform="matrix(4.16667,0,0,4.16667,0,-2698)">
        <rect x="467.76" y="719.52" width="0.48" height="0.48" style="stroke:black;stroke-width:1px;"/>
    </g>
    <g transform="matrix(4.16667,0,0,4.16667,0,-2698)">
        <rect x="468.24" y="719.52" width="71.28" height="0.48" style="stroke:black;stroke-width:1px;"/>
    </g>
    <g transform="matrix(4.16667,0,0,4.16667,0,-2698)">
        <rect x="539.52" y="719.52" width="0.48" height="0.48" style="stroke:black;stroke-width:1px;"/>
    </g>
    <g transform="matrix(4.16667,0,0,4.16667,0,-2698)">
        <rect x="539.52" y="719.52" width="0.48" height="0.48" style="stroke:black;stroke-width:1px;"/>
    </g>
    <g transform="matrix(4.16667,0,0,4.16667,0,-2574)">
        <rect x="72" y="690.24" width="0.48" height="29.28" style="stroke:black;stroke-width:1px;"/>
    </g>
    <g transform="matrix(4.16667,0,0,4.16667,0,-2574)">
        <rect x="151.44" y="690.24" width="0.48" height="29.28" style="stroke:black;stroke-width:1px;"/>
    </g>
    <g transform="matrix(4.16667,0,0,4.16667,0,-2574)">
        <rect x="204.48" y="690.24" width="0.48" height="29.28" style="stroke:black;stroke-width:1px;"/>
    </g>
    <g transform="matrix(4.16667,0,0,4.16667,0,-2574)">
        <rect x="286.32" y="690.24" width="0.48" height="29.28" style="stroke:black;stroke-width:1px;"/>
    </g>
    <g transform="matrix(4.16667,0,0,4.16667,0,-2574)">
        <rect x="359.04" y="690.24" width="0.48" height="29.28" style="stroke:black;stroke-width:1px;"/>
    </g>
    <g transform="matrix(4.16667,0,0,4.16667,0,-2574)">
        <rect x="467.76" y="690.24" width="0.48" height="29.28" style="stroke:black;stroke-width:1px;"/>
    </g>
    <g transform="matrix(4.16667,0,0,4.16667,0,-2574)">
        <rect x="539.52" y="690.24" width="0.48" height="29.28" style="stroke:black;stroke-width:1px;"/>
    </g>
    <g transform="matrix(4.16667,0,0,4.16667,0,-2450)">
        <rect x="72" y="689.76" width="0.48" height="0.48" style="stroke:black;stroke-width:1px;"/>
    </g>
    <g transform="matrix(4.16667,0,0,4.16667,0,-2450)">
        <rect x="72.48" y="689.76" width="78.96" height="0.48" style="stroke:black;stroke-width:1px;"/>
    </g>
    <g transform="matrix(4.16667,0,0,4.16667,0,-2450)">
        <rect x="151.44" y="689.76" width="0.48" height="0.48" style="stroke:black;stroke-width:1px;"/>
    </g>
    <g transform="matrix(4.16667,0,0,4.16667,0,-2450)">
        <rect x="151.92" y="689.76" width="52.56" height="0.48" style="stroke:black;stroke-width:1px;"/>
    </g>
    <g transform="matrix(4.16667,0,0,4.16667,0,-2450)">
        <rect x="204.48" y="689.76" width="0.48" height="0.48" style="stroke:black;stroke-width:1px;"/>
    </g>
    <g transform="matrix(4.16667,0,0,4.16667,0,-2450)">
        <rect x="204.96" y="689.76" width="81.36" height="0.48" style="stroke:black;stroke-width:1px;"/>
    </g>
    <g transform="matrix(4.16667,0,0,4.16667,0,-2450)">
        <rect x="286.32" y="689.76" width="0.48" height="0.48" style="stroke:black;stroke-width:1px;"/>
    </g>
    <g transform="matrix(4.16667,0,0,4.16667,0,-2450)">
        <rect x="286.8" y="689.76" width="72.24" height="0.48" style="stroke:black;stroke-width:1px;"/>
    </g>
    <g transform="matrix(4.16667,0,0,4.16667,0,-2450)">
        <rect x="359.04" y="689.76" width="0.48" height="0.48" style="stroke:black;stroke-width:1px;"/>
    </g>
    <g transform="matrix(4.16667,0,0,4.16667,0,-2450)">
        <rect x="359.52" y="689.76" width="108.24" height="0.48" style="stroke:black;stroke-width:1px;"/>
    </g>
    <g transform="matrix(4.16667,0,0,4.16667,0,-2450)">
        <rect x="467.76" y="689.76" width="0.48" height="0.48" style="stroke:black;stroke-width:1px;"/>
    </g>
    <g transform="matrix(4.16667,0,0,4.16667,0,-2450)">
        <rect x="468.24" y="689.76" width="71.28" height="0.48" style="stroke:black;stroke-width:1px;"/>
    </g>
    <g transform="matrix(4.16667,0,0,4.16667,0,-2450)">
        <rect x="539.52" y="689.76" width="0.48" height="0.48" style="stroke:black;stroke-width:1px;"/>
    </g>
    <g transform="matrix(4.16667,0,0,4.16667,0,-2265)">
        <rect x="72" y="645.84" width="0.48" height="43.92" style="stroke:black;stroke-width:1px;"/>
    </g>
    <g transform="matrix(4.16667,0,0,4.16667,0,-2265)">
        <rect x="151.44" y="645.84" width="0.48" height="43.92" style="stroke:black;stroke-width:1px;"/>
    </g>
    <g transform="matrix(4.16667,0,0,4.16667,0,-2265)">
        <rect x="204.48" y="645.84" width="0.48" height="43.92" style="stroke:black;stroke-width:1px;"/>
    </g>
    <g transform="matrix(4.16667,0,0,4.16667,0,-2265)">
        <rect x="286.32" y="645.84" width="0.48" height="43.92" style="stroke:black;stroke-width:1px;"/>
    </g>
    <g transform="matrix(4.16667,0,0,4.16667,0,-2265)">
        <rect x="359.04" y="645.84" width="0.48" height="43.92" style="stroke:black;stroke-width:1px;"/>
    </g>
    <g transform="matrix(4.16667,0,0,4.16667,0,-2265)">
        <rect x="467.76" y="645.84" width="0.48" height="43.92" style="stroke:black;stroke-width:1px;"/>
    </g>
    <g transform="matrix(4.16667,0,0,4.16667,0,-2265)">
        <rect x="539.52" y="645.84" width="0.48" height="43.92" style="stroke:black;stroke-width:1px;"/>
    </g>
    <g transform="matrix(4.16667,0,0,4.16667,0,-2080)">
        <rect x="72" y="645.36" width="0.48" height="0.48" style="stroke:black;stroke-width:1px;"/>
    </g>
    <g transform="matrix(4.16667,0,0,4.16667,0,-2080)">
        <rect x="72.48" y="645.36" width="78.96" height="0.48" style="stroke:black;stroke-width:1px;"/>
    </g>
    <g transform="matrix(4.16667,0,0,4.16667,0,-2080)">
        <rect x="151.44" y="645.36" width="0.48" height="0.48" style="stroke:black;stroke-width:1px;"/>
    </g>
    <g transform="matrix(4.16667,0,0,4.16667,0,-2080)">
        <rect x="151.92" y="645.36" width="52.56" height="0.48" style="stroke:black;stroke-width:1px;"/>
    </g>
    <g transform="matrix(4.16667,0,0,4.16667,0,-2080)">
        <rect x="204.48" y="645.36" width="0.48" height="0.48" style="stroke:black;stroke-width:1px;"/>
    </g>
    <g transform="matrix(4.16667,0,0,4.16667,0,-2080)">
        <rect x="204.96" y="645.36" width="81.36" height="0.48" style="stroke:black;stroke-width:1px;"/>
    </g>
    <g transform="matrix(4.16667,0,0,4.16667,0,-2080)">
        <rect x="286.32" y="645.36" width="0.48" height="0.48" style="stroke:black;stroke-width:1px;"/>
    </g>
    <g transform="matrix(4.16667,0,0,4.16667,0,-2080)">
        <rect x="286.8" y="645.36" width="72.24" height="0.48" style="stroke:black;stroke-width:1px;"/>
    </g>
    <g transform="matrix(4.16667,0,0,4.16667,0,-2080)">
        <rect x="359.04" y="645.36" width="0.48" height="0.48" style="stroke:black;stroke-width:1px;"/>
    </g>
    <g transform="matrix(4.16667,0,0,4.16667,0,-2080)">
        <rect x="359.52" y="645.36" width="108.24" height="0.48" style="stroke:black;stroke-width:1px;"/>
    </g>
    <g transform="matrix(4.16667,0,0,4.16667,0,-2080)">
        <rect x="467.76" y="645.36" width="0.48" height="0.48" style="stroke:black;stroke-width:1px;"/>
    </g>
    <g transform="matrix(4.16667,0,0,4.16667,0,-2080)">
        <rect x="468.24" y="645.36" width="71.28" height="0.48" style="stroke:black;stroke-width:1px;"/>
    </g>
    <g transform="matrix(4.16667,0,0,4.16667,0,-2080)">
        <rect x="539.52" y="645.36" width="0.48" height="0.48" style="stroke:black;stroke-width:1px;"/>
    </g>
    <g transform="matrix(4.16667,0,0,4.16667,0,-1894)">
        <rect x="72" y="601.2" width="0.48" height="44.16" style="stroke:black;stroke-width:1px;"/>
    </g>
    <g transform="matrix(4.16667,0,0,4.16667,0,-1894)">
        <rect x="151.44" y="601.2" width="0.48" height="44.16" style="stroke:black;stroke-width:1px;"/>
    </g>
    <g transform="matrix(4.16667,0,0,4.16667,0,-1894)">
        <rect x="204.48" y="601.2" width="0.48" height="44.16" style="stroke:black;stroke-width:1px;"/>
    </g>
    <g transform="matrix(4.16667,0,0,4.16667,0,-1894)">
        <rect x="286.32" y="601.2" width="0.48" height="44.16" style="stroke:black;stroke-width:1px;"/>
    </g>
    <g transform="matrix(4.16667,0,0,4.16667,0,-1894)">
        <rect x="359.04" y="601.2" width="0.48" height="44.16" style="stroke:black;stroke-width:1px;"/>
    </g>
    <g transform="matrix(4.16667,0,0,4.16667,0,-1894)">
        <rect x="467.76" y="601.2" width="0.48" height="44.16" style="stroke:black;stroke-width:1px;"/>
    </g>
    <g transform="matrix(4.16667,0,0,4.16667,0,-1894)">
        <rect x="539.52" y="601.2" width="0.48" height="44.16" style="stroke:black;stroke-width:1px;"/>
    </g>
    <g transform="matrix(4.16667,0,0,4.16667,0,-1708)">
        <rect x="72" y="600.72" width="0.48" height="0.48" style="stroke:black;stroke-width:1px;"/>
    </g>
    <g transform="matrix(4.16667,0,0,4.16667,0,-1708)">
        <rect x="72.48" y="600.72" width="78.96" height="0.48" style="stroke:black;stroke-width:1px;"/>
    </g>
    <g transform="matrix(4.16667,0,0,4.16667,0,-1708)">
        <rect x="151.44" y="600.72" width="0.48" height="0.48" style="stroke:black;stroke-width:1px;"/>
    </g>
    <g transform="matrix(4.16667,0,0,4.16667,0,-1708)">
        <rect x="151.92" y="600.72" width="52.56" height="0.48" style="stroke:black;stroke-width:1px;"/>
    </g>
    <g transform="matrix(4.16667,0,0,4.16667,0,-1708)">
        <rect x="204.48" y="600.72" width="0.48" height="0.48" style="stroke:black;stroke-width:1px;"/>
    </g>
    <g transform="matrix(4.16667,0,0,4.16667,0,-1708)">
        <rect x="204.96" y="600.72" width="81.36" height="0.48" style="stroke:black;stroke-width:1px;"/>
    </g>
    <g transform="matrix(4.16667,0,0,4.16667,0,-1708)">
        <rect x="286.32" y="600.72" width="0.48" height="0.48" style="stroke:black;stroke-width:1px;"/>
    </g>
    <g transform="matrix(4.16667,0,0,4.16667,0,-1708)">
        <rect x="286.8" y="600.72" width="72.24" height="0.48" style="stroke:black;stroke-width:1px;"/>
    </g>
    <g transform="matrix(4.16667,0,0,4.16667,0,-1708)">
        <rect x="359.04" y="600.72" width="0.48" height="0.48" style="stroke:black;stroke-width:1px;"/>
    </g>
    <g transform="matrix(4.16667,0,0,4.16667,0,-1708)">
        <rect x="359.52" y="600.72" width="108.24" height="0.48" style="stroke:black;stroke-width:1px;"/>
    </g>
    <g transform="matrix(4.16667,0,0,4.16667,0,-1708)">
        <rect x="467.76" y="600.72" width="0.48" height="0.48" style="stroke:black;stroke-width:1px;"/>
    </g>
    <g transform="matrix(4.16667,0,0,4.16667,0,-1708)">
        <rect x="468.24" y="600.72" width="71.28" height="0.48" style="stroke:black;stroke-width:1px;"/>
    </g>
    <g transform="matrix(4.16667,0,0,4.16667,0,-1708)">
        <rect x="539.52" y="600.72" width="0.48" height="0.48" style="stroke:black;stroke-width:1px;"/>
    </g>
    <g transform="matrix(4.16667,0,0,4.16667,0,-1523)">
        <rect x="72" y="556.8" width="0.48" height="43.92" style="stroke:black;stroke-width:1px;"/>
    </g>
    <g transform="matrix(4.16667,0,0,4.16667,0,-1523)">
        <rect x="151.44" y="556.8" width="0.48" height="43.92" style="stroke:black;stroke-width:1px;"/>
    </g>
    <g transform="matrix(4.16667,0,0,4.16667,0,-1523)">
        <rect x="204.48" y="556.8" width="0.48" height="43.92" style="stroke:black;stroke-width:1px;"/>
    </g>
    <g transform="matrix(4.16667,0,0,4.16667,0,-1523)">
        <rect x="286.32" y="556.8" width="0.48" height="43.92" style="stroke:black;stroke-width:1px;"/>
    </g>
    <g transform="matrix(4.16667,0,0,4.16667,0,-1523)">
        <rect x="359.04" y="556.8" width="0.48" height="43.92" style="stroke:black;stroke-width:1px;"/>
    </g>
    <g transform="matrix(4.16667,0,0,4.16667,0,-1523)">
        <rect x="467.76" y="556.8" width="0.48" height="43.92" style="stroke:black;stroke-width:1px;"/>
    </g>
    <g transform="matrix(4.16667,0,0,4.16667,0,-1523)">
        <rect x="539.52" y="556.8" width="0.48" height="43.92" style="stroke:black;stroke-width:1px;"/>
    </g>
    <g transform="matrix(4.16667,0,0,4.16667,0,-1338)">
        <rect x="72" y="556.32" width="0.48" height="0.48" style="stroke:black;stroke-width:1px;"/>
    </g>
    <g transform="matrix(4.16667,0,0,4.16667,0,-1338)">
        <rect x="72.48" y="556.32" width="78.96" height="0.48" style="stroke:black;stroke-width:1px;"/>
    </g>
    <g transform="matrix(4.16667,0,0,4.16667,0,-1338)">
        <rect x="151.44" y="556.32" width="0.48" height="0.48" style="stroke:black;stroke-width:1px;"/>
    </g>
    <g transform="matrix(4.16667,0,0,4.16667,0,-1338)">
        <rect x="151.92" y="556.32" width="52.56" height="0.48" style="stroke:black;stroke-width:1px;"/>
    </g>
    <g transform="matrix(4.16667,0,0,4.16667,0,-1338)">
        <rect x="204.48" y="556.32" width="0.48" height="0.48" style="stroke:black;stroke-width:1px;"/>
    </g>
    <g transform="matrix(4.16667,0,0,4.16667,0,-1338)">
        <rect x="204.96" y="556.32" width="81.36" height="0.48" style="stroke:black;stroke-width:1px;"/>
    </g>
    <g transform="matrix(4.16667,0,0,4.16667,0,-1338)">
        <rect x="286.32" y="556.32" width="0.48" height="0.48" style="stroke:black;stroke-width:1px;"/>
    </g>
    <g transform="matrix(4.16667,0,0,4.16667,0,-1338)">
        <rect x="286.8" y="556.32" width="72.24" height="0.48" style="stroke:black;stroke-width:1px;"/>
    </g>
    <g transform="matrix(4.16667,0,0,4.16667,0,-1338)">
        <rect x="359.04" y="556.32" width="0.48" height="0.48" style="stroke:black;stroke-width:1px;"/>
    </g>
    <g transform="matrix(4.16667,0,0,4.16667,0,-1338)">
        <rect x="359.52" y="556.32" width="108.24" height="0.48" style="stroke:black;stroke-width:1px;"/>
    </g>
    <g transform="matrix(4.16667,0,0,4.16667,0,-1338)">
        <rect x="467.76" y="556.32" width="0.48" height="0.48" style="stroke:black;stroke-width:1px;"/>
    </g>
    <g transform="matrix(4.16667,0,0,4.16667,0,-1338)">
        <rect x="468.24" y="556.32" width="71.28" height="0.48" style="stroke:black;stroke-width:1px;"/>
    </g>
    <g transform="matrix(4.16667,0,0,4.16667,0,-1338)">
        <rect x="539.52" y="556.32" width="0.48" height="0.48" style="stroke:black;stroke-width:1px;"/>
    </g>
    <g transform="matrix(4.16667,0,0,4.16667,0,-1153)">
        <rect x="72" y="512.4" width="0.48" height="43.92" style="stroke:black;stroke-width:1px;"/>
    </g>
    <g transform="matrix(4.16667,0,0,4.16667,0,-968)">
        <rect x="72" y="511.92" width="0.48" height="0.48" style="stroke:black;stroke-width:1px;"/>
    </g>
    <g transform="matrix(4.16667,0,0,4.16667,0,-968)">
        <rect x="72" y="511.92" width="0.48" height="0.48" style="stroke:black;stroke-width:1px;"/>
    </g>
    <g transform="matrix(4.16667,0,0,4.16667,0,-968)">
        <rect x="72.48" y="511.92" width="78.96" height="0.48" style="stroke:black;stroke-width:1px;"/>
    </g>
    <g transform="matrix(4.16667,0,0,4.16667,0,-1153)">
        <rect x="151.44" y="512.4" width="0.48" height="43.92" style="stroke:black;stroke-width:1px;"/>
    </g>
    <g transform="matrix(4.16667,0,0,4.16667,0,-968)">
        <rect x="151.44" y="511.92" width="0.48" height="0.48" style="stroke:black;stroke-width:1px;"/>
    </g>
    <g transform="matrix(4.16667,0,0,4.16667,0,-968)">
        <rect x="151.92" y="511.92" width="52.56" height="0.48" style="stroke:black;stroke-width:1px;"/>
    </g>
    <g transform="matrix(4.16667,0,0,4.16667,0,-1153)">
        <rect x="204.48" y="512.4" width="0.48" height="43.92" style="stroke:black;stroke-width:1px;"/>
    </g>
    <g transform="matrix(4.16667,0,0,4.16667,0,-968)">
        <rect x="204.48" y="511.92" width="0.48" height="0.48" style="stroke:black;stroke-width:1px;"/>
    </g>
    <g transform="matrix(4.16667,0,0,4.16667,0,-968)">
        <rect x="204.96" y="511.92" width="81.36" height="0.48" style="stroke:black;stroke-width:1px;"/>
    </g>
    <g transform="matrix(4.16667,0,0,4.16667,0,-1153)">
        <rect x="286.32" y="512.4" width="0.48" height="43.92" style="stroke:black;stroke-width:1px;"/>
    </g>
    <g transform="matrix(4.16667,0,0,4.16667,0,-968)">
        <rect x="286.32" y="511.92" width="0.48" height="0.48" style="stroke:black;stroke-width:1px;"/>
    </g>
    <g transform="matrix(4.16667,0,0,4.16667,0,-968)">
        <rect x="286.8" y="511.92" width="72.24" height="0.48" style="stroke:black;stroke-width:1px;"/>
    </g>
    <g transform="matrix(4.16667,0,0,4.16667,0,-1153)">
        <rect x="359.04" y="512.4" width="0.48" height="43.92" style="stroke:black;stroke-width:1px;"/>
    </g>
    <g transform="matrix(4.16667,0,0,4.16667,0,-968)">
        <rect x="359.04" y="511.92" width="0.48" height="0.48" style="stroke:black;stroke-width:1px;"/>
    </g>
    <g transform="matrix(4.16667,0,0,4.16667,0,-968)">
        <rect x="359.52" y="511.92" width="108.24" height="0.48" style="stroke:black;stroke-width:1px;"/>
    </g>
    <g transform="matrix(4.16667,0,0,4.16667,0,-1153)">
        <rect x="467.76" y="512.4" width="0.48" height="43.92" style="stroke:black;stroke-width:1px;"/>
    </g>
    <g transform="matrix(4.16667,0,0,4.16667,0,-968)">
        <rect x="467.76" y="511.92" width="0.48" height="0.48" style="stroke:black;stroke-width:1px;"/>
    </g>
    <g transform="matrix(4.16667,0,0,4.16667,0,-968)">
        <rect x="468.24" y="511.92" width="71.28" height="0.48" style="stroke:black;stroke-width:1px;"/>
    </g>
    <g transform="matrix(4.16667,0,0,4.16667,0,-1153)">
        <rect x="539.52" y="512.4" width="0.48" height="43.92" style="stroke:black;stroke-width:1px;"/>
    </g>
    <g transform="matrix(4.16667,0,0,4.16667,0,-968)">
        <rect x="539.52" y="511.92" width="0.48" height="0.48" style="stroke:black;stroke-width:1px;"/>
    </g>
    <g transform="matrix(4.16667,0,0,4.16667,0,-968)">
        <rect x="539.52" y="511.92" width="0.48" height="0.48" style="stroke:black;stroke-width:1px;"/>
    </g>
</svg>
